ply
format ascii 1.0
element vertex 24
property float32 x
property float32 y
property float32 z
end_header
109.750000 111.000000 0.000000
109.750000 110.715293 0.000000
109.750000 110.430586 0.000000
109.750000 109.569414 0.000000
109.750000 109.284707 0.000000
109.750000 109.000000 0.000000
111.000000 109.750000 0.000000
110.715293 109.750000 0.000000
110.430586 109.750000 0.000000
109.569414 109.750000 0.000000
109.284707 109.750000 0.000000
109.000000 109.750000 0.000000
109.750000 111.000000 0.400000
109.750000 110.715293 0.400000
109.750000 110.430586 0.400000
109.750000 109.569414 0.400000
109.750000 109.284707 0.400000
109.750000 109.000000 0.400000
111.000000 109.750000 0.400000
110.715293 109.750000 0.400000
110.430586 109.750000 0.400000
109.569414 109.750000 0.400000
109.284707 109.750000 0.400000
109.000000 109.750000 0.400000
